<?xml version="1.0" encoding="utf-8"?>
<mxfile>
	<diagram name="Seite - 1" id="7a276dd4-2980-44c5-bdbb-2c65b522b7d7">
		<mxGraphModel dx="780" dy="542" grid="1" gridSize="10" guides="1" page="1" pageScale="1" pageWidth="1169" pageHeight="1654" math="0" shadow="0">
			<root>
				<mxCell id="0"></mxCell>
				<mxCell id="1" parent="0"></mxCell>
			</root>
		</mxGraphModel>
	</diagram>
	<diagram name="NEUE SEITE 2" id="ef4bfa60-91cc-4ea2-96eb-f69f1145bfc4">
		<mxGraphModel dx="780" dy="542" grid="1" gridSize="10" guides="1" page="1" pageScale="1" pageWidth="1169" pageHeight="1654" math="0" shadow="0">
			<root>
				<mxCell id="0"></mxCell>
				<mxCell id="1" parent="0"></mxCell>
			</root>
		</mxGraphModel>
	</diagram>
	<diagram name="NEUE SEITE 3" id="062c32fb-653e-4de4-accb-18d7f339d976">
		<mxGraphModel dx="780" dy="542" grid="1" gridSize="10" guides="1" page="1" pageScale="1" pageWidth="1169" pageHeight="1654" math="0" shadow="0">
			<root>
				<mxCell id="0"></mxCell>
				<mxCell id="1" parent="0"></mxCell>
			</root>
		</mxGraphModel>
	</diagram>
</mxfile>